<svg xmlns="http://www.w3.org/2000/svg" width="512" height="512" viewBox="0 0 512 512" version="1.1">
	<path d="M 277 9.830 C 277 11.258, 283.880 16.453, 284.694 15.639 C 285.046 15.288, 285.146 14.852, 284.917 14.672 C 280.107 10.882, 277 8.982, 277 9.830 M 335 13.472 C 337.475 14.183, 340.288 15.090, 341.250 15.489 C 342.272 15.912, 343 15.773, 343 15.154 C 343 13.920, 336.637 11.973, 333 12.095 C 331.226 12.154, 331.807 12.554, 335 13.472 M 284 18.566 C 284 20.286, 286.263 22.956, 287.220 22.364 C 287.970 21.901, 288.108 22.275, 287.639 23.498 C 287.253 24.503, 287.453 28.845, 288.082 33.147 C 288.933 38.968, 288.939 43.399, 288.106 50.466 C 286.420 64.756, 282.045 72.626, 273.377 76.954 C 270.732 78.275, 269.121 79.540, 269.797 79.766 C 271.707 80.402, 279.280 75.539, 283.292 71.099 C 285.750 68.378, 287.620 64.770, 289.104 59.883 C 291.039 53.512, 291.225 51.223, 290.706 40.089 L 290.121 27.500 291.848 31.765 C 294.848 39.171, 293.794 54.554, 289.375 67.880 C 288.028 71.939, 287.168 75.502, 287.463 75.797 C 288.180 76.513, 288.319 76.289, 290.738 70.500 C 296.559 56.570, 297.725 41.697, 293.898 30.190 C 292.529 26.074, 290.541 22.442, 288.730 20.750 C 285.977 18.176, 284 17.263, 284 18.566 M 352.031 27.500 C 352.031 28.050, 352.467 29.175, 353 30 C 353.533 30.825, 353.969 31.050, 353.969 30.500 C 353.969 29.950, 353.533 28.825, 353 28 C 352.467 27.175, 352.031 26.950, 352.031 27.500 M 363 28.867 C 363 29.478, 363.899 32.346, 364.999 35.238 C 367.990 43.111, 368.437 48.746, 366.629 55.802 C 363.453 68.200, 357.504 77.182, 348.783 82.745 C 342.868 86.519, 345.974 86.241, 352.676 82.397 C 360.601 77.852, 366.978 67.413, 369.647 54.616 C 371.282 46.777, 370.715 40.612, 367.780 34.301 C 365.748 29.930, 363 26.807, 363 28.867 M 209.031 35.500 C 209.031 36.050, 209.467 37.175, 210 38 C 210.533 38.825, 210.969 39.050, 210.969 38.500 C 210.969 37.950, 210.533 36.825, 210 36 C 209.467 35.175, 209.031 34.950, 209.031 35.500 M 211.158 42 C 211.158 43.375, 211.385 43.938, 211.662 43.250 C 211.940 42.563, 211.940 41.438, 211.662 40.750 C 211.385 40.063, 211.158 40.625, 211.158 42 M 208.087 47.083 C 208.319 53.487, 210.631 66.329, 211.186 64.298 C 211.517 63.087, 211.143 58.382, 210.355 53.843 C 208.915 45.545, 207.925 42.593, 208.087 47.083 M 212.486 50.500 C 212.786 53.800, 213.205 58.908, 213.416 61.850 C 213.627 64.793, 214.341 67.718, 215.003 68.350 C 215.935 69.241, 216.079 68.598, 215.644 65.500 C 215.335 63.300, 214.801 58.315, 214.457 54.423 C 214.113 50.530, 213.406 46.705, 212.886 45.923 C 212.266 44.990, 212.129 46.566, 212.486 50.500 M 354 62.560 C 353.175 64.699, 350.976 68.711, 349.112 71.475 L 345.725 76.500 348.865 73.560 C 352.444 70.210, 356.315 62.870, 355.828 60.358 C 355.622 59.298, 354.942 60.117, 354 62.560 M 225 79.201 C 225 79.640, 226.575 80, 228.500 80 C 230.425 80, 232 79.824, 232 79.609 C 232 79.395, 230.425 79.035, 228.500 78.810 C 226.575 78.585, 225 78.761, 225 79.201 M 222.451 82.115 C 216.375 82.483, 205.003 83.753, 197.180 84.938 C 189.358 86.123, 182.448 86.777, 181.824 86.391 C 181.095 85.941, 180.969 86.141, 181.471 86.953 C 182.035 87.866, 181.706 88.042, 180.279 87.588 C 178.128 86.906, 167.582 89.248, 168.531 90.198 C 168.852 90.519, 165.826 92.036, 161.807 93.570 C 157.788 95.104, 153.219 97.637, 151.654 99.198 C 148.946 101.900, 148.841 102.341, 149.477 108.269 C 150.478 117.590, 152.921 136.694, 153.983 143.500 C 155.661 154.255, 158.962 181.654, 159.636 190.428 C 160.189 197.619, 160.057 199, 158.818 199 C 156.233 199, 145.257 209.833, 140.236 217.338 C 132.795 228.464, 128.855 241.358, 128.234 256.617 C 127.649 270.970, 129.288 280.006, 134.396 290.602 C 140.447 303.152, 147.156 310.573, 163 322.240 C 171.233 328.303, 172.798 335.651, 169.009 350.465 C 165.850 362.818, 158.025 374.192, 148.006 380.996 C 135.747 389.321, 119.540 392.313, 98.992 390.044 C 92.833 389.363, 87.412 389.188, 86.945 389.655 C 85.468 391.132, 89.567 398.474, 93.978 402.249 C 102.226 409.309, 112.624 413, 124.265 413 C 148.631 413, 170.150 398.571, 182.057 374.250 C 185.658 366.894, 188 364.052, 188 367.038 C 188 368.794, 181.420 385.225, 177.985 392.045 C 168.787 410.309, 154.690 423.791, 139.496 428.855 C 131.418 431.547, 118.324 432.509, 109 431.097 C 93.996 428.823, 81.669 419.706, 77.061 407.475 C 75.179 402.480, 74.874 400.024, 75.198 392.500 C 75.664 381.659, 78.400 375.749, 86.497 368.091 C 93.252 361.703, 99.915 358.427, 111.798 355.653 C 122.560 353.140, 123.576 351.978, 118.188 348.348 C 113.330 345.074, 105.003 343.693, 93.263 344.215 C 83.704 344.640, 82.436 344.953, 74.715 348.778 C 60.053 356.044, 50.032 369.090, 45.357 387 C 43.048 395.842, 43.116 415.536, 45.478 422.500 C 49.913 435.571, 59.360 449.772, 68.781 457.529 C 81.641 468.117, 103.778 475.907, 121.213 475.980 C 125.870 476, 125.975 476.073, 130.146 482.250 C 143.277 501.697, 159.240 510, 183.500 510 C 197.344 510, 207.034 507.706, 218.282 501.764 C 232.065 494.484, 248.015 476.722, 253.376 462.686 C 254.363 460.102, 255.502 458.192, 255.908 458.443 C 256.314 458.694, 258.327 462.301, 260.382 466.458 C 269.470 484.848, 287.918 501.320, 305.985 507.177 C 315.179 510.158, 336.848 510.890, 345.929 508.526 C 359.287 505.049, 369.491 497.667, 378.966 484.626 L 385.026 476.285 394.263 475.607 C 407.254 474.652, 414.914 472.570, 427 466.706 C 436.130 462.276, 438.692 460.430, 446.633 452.556 C 456.083 443.185, 460.387 436.343, 464.595 424 C 467.490 415.510, 467.265 395.048, 464.166 385 C 459.201 368.898, 447.917 355.529, 433.119 348.213 L 425.607 344.500 411.054 344.500 C 397.791 344.500, 396.119 344.704, 392.201 346.795 C 388.162 348.952, 386.081 351.415, 387.283 352.616 C 387.575 352.908, 391.092 353.825, 395.099 354.655 C 410.939 357.933, 421.417 364.084, 428.207 374.090 C 437.925 388.409, 436.866 407.317, 425.702 418.835 C 412.487 432.469, 383.139 436.306, 363.473 426.972 C 356.922 423.862, 347.195 414.744, 339.630 404.623 C 335.284 398.808, 322 374.330, 322 372.136 C 322 369.223, 324.807 371.583, 327.781 376.997 C 337.010 393.799, 355.338 408.273, 372.114 412.008 C 389.633 415.908, 414.040 408.613, 420.530 397.538 C 424.916 390.055, 423.630 388.510, 414.289 390.040 C 405.653 391.455, 388.344 391.170, 381.246 389.496 C 360.890 384.697, 343.993 368.003, 338.931 347.691 C 337.610 342.388, 338.132 332.922, 339.967 328.943 C 340.615 327.536, 344.135 324.386, 347.788 321.943 C 362.851 311.869, 374.206 297.529, 379.022 282.500 C 382.478 271.716, 382.913 254.165, 380.016 242.447 C 376.143 226.779, 368.126 213.513, 357 204.360 C 350.642 199.129, 350.029 198.305, 350.445 195.545 C 350.698 193.870, 351.182 189.575, 351.520 186 C 351.859 182.425, 354.355 163.836, 357.068 144.692 C 359.781 125.548, 362 108.538, 362 106.893 C 362 102.636, 359.602 98.551, 355.787 96.310 C 350.492 93.200, 338.133 89.652, 323 86.897 C 319.425 86.246, 315.600 85.248, 314.500 84.678 C 312.186 83.481, 310.685 83.403, 274 82.579 C 258.875 82.239, 243.575 81.845, 240 81.703 C 236.425 81.562, 228.528 81.747, 222.451 82.115 M 327 84 L 322.500 84.700 326.500 84.780 C 328.700 84.823, 331.400 84.473, 332.500 84 C 334.817 83.004, 333.404 83.004, 327 84 M 340 86 L 337.500 86.801 340.250 86.900 C 341.762 86.955, 343 86.550, 343 86 C 343 85.450, 342.887 85.045, 342.750 85.100 C 342.613 85.155, 341.375 85.560, 340 86 M 182.147 221.012 C 168.735 223.843, 156.035 237.794, 152.791 253.260 C 149.420 269.330, 159.227 288.675, 174.266 295.620 C 179.750 298.154, 181.643 298.500, 190 298.500 C 198.587 298.500, 200.125 298.200, 206 295.375 C 213.923 291.565, 220.174 285.478, 224.355 277.500 C 227.351 271.784, 227.500 270.957, 227.500 260 C 227.500 249.600, 227.242 247.950, 224.804 242.747 C 221.356 235.389, 213.503 227.087, 206.768 223.681 C 200.802 220.663, 189.569 219.445, 182.147 221.012 M 311.223 221.004 C 301.837 222.981, 289.366 232.442, 285.087 240.830 C 275.253 260.106, 282.311 283.958, 300.759 293.791 C 308.660 298.002, 318.082 299.661, 325.565 298.159 C 339.141 295.432, 349.775 287.324, 354.044 276.441 C 357.338 268.047, 357.355 253.994, 354.081 245.656 C 349.988 235.233, 339.321 224.662, 330.182 221.973 C 324.861 220.408, 316.163 219.963, 311.223 221.004 M 177.898 249.270 C 171.098 253.812, 169.245 262.095, 173.250 270.038 C 177.185 277.842, 186.202 280.206, 195.038 275.750 C 205.199 270.626, 205.797 255.747, 196.102 249.270 C 193.561 247.572, 191.266 247, 187 247 C 182.734 247, 180.439 247.572, 177.898 249.270 M 312.366 249.493 C 305.969 254.536, 304.509 264.375, 309.051 271.843 C 314.638 281.031, 331.185 279.277, 336.536 268.931 C 339.809 262.602, 337.138 253.689, 330.635 249.233 C 325.859 245.960, 316.681 246.091, 312.366 249.493" stroke="none" fill="black" fill-rule="evenodd"/>
</svg>